<?xml version="1.0" standalone="no"?><!DOCTYPE svg PUBLIC "-//W3C//DTD SVG 1.1//EN" "http://www.w3.org/Graphics/SVG/1.1/DTD/svg11.dtd"><svg t="1688629728388" class="icon" viewBox="0 0 1092 1024" version="1.1" xmlns="http://www.w3.org/2000/svg" p-id="61281" xmlns:xlink="http://www.w3.org/1999/xlink" width="213.28125" height="200"><path d="M921.6 546.133333a170.666667 170.666667 0 0 1 170.666667 170.666667v136.533333a170.666667 170.666667 0 1 1-341.333334 0v-136.533333A170.666667 170.666667 0 0 1 921.6 546.133333z m0 102.4a68.266667 68.266667 0 0 0-68.266667 68.266667v136.533333a68.266667 68.266667 0 0 0 136.533334 0v-136.533333a68.266667 68.266667 0 0 0-68.266667-68.266667zM170.666667 546.133333A170.666667 170.666667 0 0 1 341.333333 716.8v136.533333a170.666667 170.666667 0 1 1-341.333333 0v-136.533333A170.666667 170.666667 0 0 1 170.666667 546.133333z m0 102.4a68.266667 68.266667 0 0 0-68.266667 68.266667v136.533333a68.266667 68.266667 0 0 0 136.533333 0v-136.533333a68.266667 68.266667 0 0 0-68.266666-68.266667z" p-id="61282"></path><path d="M443.733333 682.666667m34.133334 0l0 0q34.133333 0 34.133333 34.133333l0 196.744533q0 34.133333-34.133333 34.133334l0 0q-34.133333 0-34.133334-34.133334l0-196.744533q0-34.133333 34.133334-34.133333Z" fill="#FA8C1D" p-id="61283"></path><path d="M580.266667 614.4m34.133333 0l0 0q34.133333 0 34.133333 34.133333l0 305.220267q0 34.133333-34.133333 34.133333l0 0q-34.133333 0-34.133333-34.133333l0-305.220267q0-34.133333 34.133333-34.133333Z" fill="#FA8C1D" p-id="61284"></path><path d="M1092.266667 750.933333h-102.4V546.133333a443.733333 443.733333 0 1 0-887.466667 0v204.8H0V546.133333a546.133333 546.133333 0 1 1 1092.266667 0v204.8z" p-id="61285"></path></svg>