<?xml version="1.0" standalone="no"?><!DOCTYPE svg PUBLIC "-//W3C//DTD SVG 1.1//EN" "http://www.w3.org/Graphics/SVG/1.1/DTD/svg11.dtd"><svg t="1688572385315" class="icon" viewBox="0 0 1024 1024" version="1.1" xmlns="http://www.w3.org/2000/svg" p-id="23979" xmlns:xlink="http://www.w3.org/1999/xlink" width="200" height="200"><path d="M185.6 435.2c-6.4 0-12.8-6.4-12.8-12.8-6.4-12.8-6.4-32-6.4-51.2 0-57.6 32-108.8 76.8-134.4 6.4-6.4 19.2 0 19.2 6.4 6.4 6.4 6.4 12.8-6.4 19.2-38.4 25.6-64 64-64 108.8 0 12.8 0 32 6.4 44.8 6.4 6.4 6.4 12.8-12.8 19.2 6.4 0 6.4 0 0 0z" fill="#161616" p-id="23980"></path><path d="M512 947.2c-25.6 0-44.8-6.4-64-25.6l-70.4-70.4C288 761.6 172.8 640 134.4 601.6 83.2 550.4 51.2 505.6 38.4 448c-19.2-83.2 0-172.8 44.8-243.2 44.8-70.4 121.6-115.2 204.8-128C371.2 64 448 83.2 512 128c51.2-38.4 115.2-57.6 172.8-57.6 166.4 0 307.2 134.4 307.2 307.2 0 76.8-32 160-89.6 217.6L576 921.6c-19.2 19.2-38.4 25.6-64 25.6zM339.2 140.8h-38.4c-64 12.8-121.6 51.2-160 102.4-38.4 57.6-51.2 128-38.4 192 12.8 44.8 32 83.2 76.8 121.6l243.2 243.2 70.4 70.4c6.4 6.4 25.6 6.4 32 0l326.4-326.4c44.8-44.8 70.4-108.8 70.4-172.8 0-134.4-108.8-243.2-243.2-243.2-51.2 0-96 12.8-140.8 44.8-19.2 12.8-51.2 12.8-70.4 0-32-19.2-83.2-32-128-32zM512 134.4z" fill="#161616" p-id="23981"></path></svg>