<?xml version="1.0" standalone="no"?><!DOCTYPE svg PUBLIC "-//W3C//DTD SVG 1.1//EN" "http://www.w3.org/Graphics/SVG/1.1/DTD/svg11.dtd"><svg t="1688562478989" class="icon" viewBox="0 0 1024 1024" version="1.1" xmlns="http://www.w3.org/2000/svg" p-id="52810" xmlns:xlink="http://www.w3.org/1999/xlink" width="200" height="200"><path d="M936.448 160.256c-116.736-116.736-306.176-116.736-423.424 0l-2.048 2.048C394.24 45.568 204.288 45.568 87.552 162.304s-116.736 306.688 0 423.424l325.12 325.12c54.272 54.272 141.824 54.272 196.096 0l325.12-325.12 2.048-2.048c117.248-117.248 117.248-306.688 0.512-423.424zM311.296 290.816c-50.688 0-91.648 40.96-92.16 92.16 0 19.456-15.872 34.816-34.816 34.816-19.456 0-34.816-15.872-34.816-34.816 0-89.088 72.704-161.792 161.792-161.792 19.456 0 34.816 15.872 34.816 34.816 0 19.456-15.36 34.816-34.816 34.816z" fill="#D1252C" p-id="52811"></path></svg>