<?xml version="1.0" standalone="no"?><!DOCTYPE svg PUBLIC "-//W3C//DTD SVG 1.1//EN" "http://www.w3.org/Graphics/SVG/1.1/DTD/svg11.dtd"><svg t="1688479621353" class="icon" viewBox="0 0 1024 1024" version="1.1" xmlns="http://www.w3.org/2000/svg" p-id="7649" xmlns:xlink="http://www.w3.org/1999/xlink" width="200" height="200"><path d="M853.333333 896H170.666667a128 128 0 0 1-128-128V256a128 128 0 0 1 128-128h682.666666a128 128 0 0 1 128 128v512a128 128 0 0 1-128 128zM170.666667 213.333333a42.666667 42.666667 0 0 0-42.666667 42.666667v512a42.666667 42.666667 0 0 0 42.666667 42.666667h682.666666a42.666667 42.666667 0 0 0 42.666667-42.666667V256a42.666667 42.666667 0 0 0-42.666667-42.666667z" fill="#4E4E4E" p-id="7650"></path><path d="M282.666667 512m-85.333334 0a85.333333 85.333333 0 1 0 170.666667 0 85.333333 85.333333 0 1 0-170.666667 0Z" fill="#FF9813" p-id="7651"></path><path d="M512 512m-85.333333 0a85.333333 85.333333 0 1 0 170.666666 0 85.333333 85.333333 0 1 0-170.666666 0Z" fill="#FF9813" p-id="7652"></path><path d="M741.333333 512m-85.333333 0a85.333333 85.333333 0 1 0 170.666667 0 85.333333 85.333333 0 1 0-170.666667 0Z" fill="#FF9813" p-id="7653"></path></svg>