<?xml version="1.0" standalone="no"?><!DOCTYPE svg PUBLIC "-//W3C//DTD SVG 1.1//EN" "http://www.w3.org/Graphics/SVG/1.1/DTD/svg11.dtd"><svg t="1688553070123" class="icon" viewBox="0 0 1024 1024" version="1.1" xmlns="http://www.w3.org/2000/svg" p-id="70394" xmlns:xlink="http://www.w3.org/1999/xlink" width="200" height="200"><path d="M961.761463 754.46322c-7.093073 13.08722-23.377171 17.982439-36.46439 10.889365-13.08722-7.093073-17.982439-23.377171-10.889366-36.46439 35.765073-66.235317 54.746537-140.362927 54.746537-217.287805 0-252.753171-204.899902-457.653073-457.653073-457.653073S53.848098 258.747317 53.848098 511.500488s204.899902 457.653073 457.653073 457.653073c89.612488 0 175.228878-25.774829 248.757073-73.428293 12.487805-8.092098 29.171512-4.49561 37.26361 7.892293 8.092098 12.487805 4.49561 29.171512-7.892293 37.26361-82.119805 53.347902-178.026146 82.119805-278.12839 82.119805-282.524098 0-511.500488-228.97639-511.500488-511.500488S229.076976 0 511.501171 0s511.500488 228.97639 511.500488 511.500488c0 85.916098-21.179317 168.935024-61.240196 242.962732z" fill="#231916" p-id="70395"></path><path d="M403.806341 296.110829c29.770927 0 53.847415 24.076488 53.847415 53.847415v323.084488c0 29.770927-24.076488 53.847415-53.847415 53.847414-29.770927 0-53.847415-24.076488-53.847414-53.847414V349.958244c0-29.770927 24.17639-53.847415 53.847414-53.847415zM619.196 296.110829c29.770927 0 53.847415 24.076488 53.847415 53.847415v323.084488c0 29.770927-24.076488 53.847415-53.847415 53.847414-29.770927 0-53.847415-24.076488-53.847415-53.847414V349.958244c0-29.770927 24.17639-53.847415 53.847415-53.847415z" fill="#F4C720" p-id="70396"></path></svg>